<svg width="12" height="11" viewBox="0 0 12 11" fill="none" xmlns="http://www.w3.org/2000/svg">
<path d="M11.9313 2.01318C11.9313 2.94098 11.143 3.69311 10.1707 3.69311C9.19829 3.69311 8.41003 2.94098 8.41003 2.01318C8.41003 1.08538 9.19829 0.333252 10.1707 0.333252C11.143 0.333252 11.9313 1.08538 11.9313 2.01318Z" fill="#22322F"/>
<path d="M11.9351 9.30102C11.9351 10.2288 11.1468 10.981 10.1744 10.981C9.20207 10.981 8.41382 10.2288 8.41382 9.30102C8.41382 8.37322 9.20207 7.62109 10.1744 7.62109C11.1468 7.62109 11.9351 8.37322 11.9351 9.30102Z" fill="#22322F"/>
<path d="M4.29895 2.01318C4.29895 2.94098 3.51069 3.69311 2.53833 3.69311C1.56597 3.69311 0.77771 2.94098 0.77771 2.01318C0.77771 1.08538 1.56597 0.333252 2.53833 0.333252C3.51069 0.333252 4.29895 1.08538 4.29895 2.01318Z" fill="#22322F"/>
<path d="M4.30346 9.29394C4.30346 10.2217 3.51521 10.9739 2.54285 10.9739C1.57048 10.9739 0.782227 10.2217 0.782227 9.29394C0.782227 8.36614 1.57048 7.61401 2.54285 7.61401C3.51521 7.61401 4.30346 8.36614 4.30346 9.29394Z" fill="#22322F"/>
</svg>
